STARTFONT   2.1
COMMENT
COMMENT Copyright: "Leon Marrick, 2005.  Freeware.  Share and enjoy!"
COMMENT
FONT -angband-12x18x-medium-r-normal--18-140-96-96-c-120-iso8859-1
SIZE  14  96   96
FONTBOUNDINGBOX 12  18  0  -3
STARTPROPERTIES  4
FONT_ASCENT 15
FONT_DESCENT 3
CAP_HEIGHT 15
DEFAULT_CHAR 8223
ENDPROPERTIES
CHARS  256
STARTCHAR 0  
ENCODING 0
SWIDTH    12000    0 
DWIDTH    12    0 
BBX  12  18  0   -3
BITMAP
0000
0000
0000
0000
0000
0000
0000
0000
0000
0000
0000
0000
0000
0000
0000
0000
0000
0000
ENDCHAR
STARTCHAR 1  
ENCODING 1
SWIDTH    12000    0 
DWIDTH    12    0 
BBX  12  18  0   -3
BITMAP
FFF0
FFF0
FFF0
FFF0
FFF0
FFF0
FFF0
FFF0
FFF0
FFF0
FFF0
FFF0
FFF0
FFF0
FFF0
FFF0
FFF0
FFF0
ENDCHAR
STARTCHAR 2  
ENCODING 2
SWIDTH    12000    0 
DWIDTH    12    0 
BBX  12  18  0   -3
BITMAP
B7B0
FEF0
77F0
DED0
FBF0
BF70
EDD0
BFF0
F6E0
7FF0
DDB0
FFF0
6F60
FDF0
B7B0
FFF0
DB50
7FF0
ENDCHAR
STARTCHAR 3  
ENCODING 3
SWIDTH    12000    0 
DWIDTH    12    0 
BBX  12  18  0   -3
BITMAP
B550
6BF0
B5A0
6B70
5D50
EBE0
5550
EEE0
5550
FAF0
A5A0
7F70
5550
EBE0
5550
EEE0
5550
FAF0
ENDCHAR
STARTCHAR 4  
ENCODING 4
SWIDTH    12000    0 
DWIDTH    12    0 
BBX  12  18  0   -3
BITMAP
4840
0100
8800
2120
0400
4080
1220
4000
0910
8000
2240
0000
9090
0200
4840
0000
24A0
8000
ENDCHAR
STARTCHAR 5  
ENCODING 5
SWIDTH    12000    0 
DWIDTH    12    0 
BBX  12  18  0   -3
BITMAP
8200
1040
0000
4100
0000
0810
0000
4080
0000
8200
1040
0000
4100
0000
0820
0000
4080
0000
ENDCHAR
STARTCHAR 6  
ENCODING 6
SWIDTH    12000    0 
DWIDTH    12    0 
BBX  12  18  0   -3
BITMAP
0000
4080
0000
0000
0400
0000
0000
1020
0000
0000
0000
4080
0000
0400
0000
0000
1020
0000
ENDCHAR
STARTCHAR 7  
ENCODING 7
SWIDTH    12000    0 
DWIDTH    12    0 
BBX  12  18  0   -3
BITMAP
0000
0000
0000
0000
0000
0000
0000
0000
0000
0600
0000
0000
0000
0000
0000
0000
0000
0000
ENDCHAR
STARTCHAR 8  
ENCODING 8
SWIDTH    12000    0 
DWIDTH    12    0 
BBX  12  18  0   -3
BITMAP
0000
0000
0000
0000
0000
0000
0000
0000
0600
0600
0000
0000
0000
0000
0000
0000
0000
0000
ENDCHAR
STARTCHAR 9  
ENCODING 9
SWIDTH    12000    0 
DWIDTH    12    0 
BBX  12  18  0   -3
BITMAP
0000
0000
0000
0000
0000
0000
0F00
1F80
1F80
1F80
1F80
0F00
0000
0000
0000
0000
0000
0000
ENDCHAR
STARTCHAR 10  
ENCODING 10
SWIDTH    12000    0 
DWIDTH    12    0 
BBX  12  18  0   -3
BITMAP
0000
0000
0000
0600
1F80
3FC0
3FC0
7FE0
7FE0
7FE0
3FC0
3FC0
1F80
0600
0000
0000
0000
0000
ENDCHAR
STARTCHAR 11  
ENCODING 11
SWIDTH    12000    0 
DWIDTH    12    0 
BBX  12  18  0   -3
BITMAP
0000
0000
0000
0000
0000
0000
0000
0000
01C0
0F60
3AA0
7570
6AB0
D550
FFF0
0000
0000
0000
ENDCHAR
STARTCHAR 12  
ENCODING 12
SWIDTH    12000    0 
DWIDTH    12    0 
BBX  12  18  0   -3
BITMAP
0000
0000
0000
0000
0000
0000
3FC0
5560
FFF0
5560
2AC0
1580
0B00
0600
0000
0000
0000
0000
ENDCHAR
STARTCHAR 13  
ENCODING 13
SWIDTH    12000    0 
DWIDTH    12    0 
BBX  12  18  0   -3
BITMAP
0F00
35C0
6AA0
5560
AAB0
D550
AAB0
D550
AAB0
D550
FFF0
AAB0
D550
AAB0
D550
AAB0
D550
FFF0
ENDCHAR
STARTCHAR 14  
ENCODING 14
SWIDTH    12000    0 
DWIDTH    12    0 
BBX  12  18  0   -3
BITMAP
0F00
30C0
4020
4020
8010
8010
8010
8010
8010
8010
8010
8010
8010
8010
8010
8010
8010
FFF0
ENDCHAR
STARTCHAR 15  
ENCODING 15
SWIDTH    12000    0 
DWIDTH    12    0 
BBX  12  18  0   -3
BITMAP
0900
2040
0000
4020
8010
0000
8010
0000
8010
0000
8010
0000
8010
0000
8010
0000
8010
D6B0
ENDCHAR
STARTCHAR 16  
ENCODING 16
SWIDTH    12000    0 
DWIDTH    12    0 
BBX  12  18  0   -3
BITMAP
0000
6960
3FC0
0B80
0700
1B80
0680
0B00
1780
0B80
0700
1B80
0680
0B00
37C0
3AC0
1F80
0000
ENDCHAR
STARTCHAR 17  
ENCODING 17
SWIDTH    12000    0 
DWIDTH    12    0 
BBX  12  18  0   -3
BITMAP
0000
0000
0000
0120
02C0
0000
0000
0000
2400
5800
0000
0000
0000
0000
0480
0B00
0000
0000
ENDCHAR
STARTCHAR 18  
ENCODING 18
SWIDTH    12000    0 
DWIDTH    12    0 
BBX  12  18  0   -3
BITMAP
0000
0000
0F00
1680
2940
36C0
2940
1680
1980
0600
0600
0600
0600
0600
0600
0600
0000
0000
ENDCHAR
STARTCHAR 19  
ENCODING 19
SWIDTH    12000    0 
DWIDTH    12    0 
BBX  12  18  0   -3
BITMAP
0000
0000
0200
1000
1100
0500
5540
0500
2440
2940
1D40
1680
3DC0
6BE0
5560
3AA0
0000
0000
ENDCHAR
STARTCHAR 20  
ENCODING 20
SWIDTH    12000    0 
DWIDTH    12    0 
BBX  12  18  0   -3
BITMAP
0000
0000
2480
1500
4040
2080
0000
C060
0000
0000
C060
0000
2080
4040
1500
2480
0000
0000
ENDCHAR
STARTCHAR 21  
ENCODING 21
SWIDTH    12000    0 
DWIDTH    12    0 
BBX  12  18  0   -3
BITMAP
0000
0000
0000
0000
0000
0000
0000
0000
0000
0000
0000
0000
0000
0000
0000
0000
0000
0000
ENDCHAR
STARTCHAR 22  
ENCODING 22
SWIDTH    12000    0 
DWIDTH    12    0 
BBX  12  18  0   -3
BITMAP
0000
0000
0000
0000
0000
0000
0000
0000
0000
0000
0000
0000
0000
0000
0000
0000
0000
0000
ENDCHAR
STARTCHAR 23  
ENCODING 23
SWIDTH    12000    0 
DWIDTH    12    0 
BBX  12  18  0   -3
BITMAP
0000
0000
0000
0000
0000
0000
0000
0000
0000
0000
0000
0000
0000
0000
0000
0000
0000
0000
ENDCHAR
STARTCHAR 24  
ENCODING 24
SWIDTH    12000    0 
DWIDTH    12    0 
BBX  12  18  0   -3
BITMAP
0000
0000
0000
0000
0000
0000
0000
0000
0000
0000
0000
0000
0000
0000
0000
0000
0000
0000
ENDCHAR
STARTCHAR 25  
ENCODING 25
SWIDTH    12000    0 
DWIDTH    12    0 
BBX  12  18  0   -3
BITMAP
0000
0000
0000
0000
0000
0000
0000
0000
0000
0000
0000
0000
0000
0000
0000
0000
0000
0000
ENDCHAR
STARTCHAR 26  
ENCODING 26
SWIDTH    12000    0 
DWIDTH    12    0 
BBX  12  18  0   -3
BITMAP
0000
0000
0000
0000
0000
0000
0000
0000
0000
0000
0000
0000
0000
0000
0000
0000
0000
0000
ENDCHAR
STARTCHAR 27  
ENCODING 27
SWIDTH    12000    0 
DWIDTH    12    0 
BBX  12  18  0   -3
BITMAP
0000
0000
0000
0000
0000
0000
0000
0000
0000
0000
0000
0000
0000
0000
0000
0000
0000
0000
ENDCHAR
STARTCHAR 28  
ENCODING 28
SWIDTH    12000    0 
DWIDTH    12    0 
BBX  12  18  0   -3
BITMAP
0000
0000
0000
0000
0000
0000
0000
0000
0000
0000
0000
0000
0000
0000
0000
0000
0000
0000
ENDCHAR
STARTCHAR 29  
ENCODING 29
SWIDTH    12000    0 
DWIDTH    12    0 
BBX  12  18  0   -3
BITMAP
0000
0000
0000
0000
0000
0000
0000
0000
0000
0000
0000
0000
0000
0000
0000
0000
0000
0000
ENDCHAR
STARTCHAR 30  
ENCODING 30
SWIDTH    12000    0 
DWIDTH    12    0 
BBX  12  18  0   -3
BITMAP
0000
0000
0000
0000
0000
0000
0000
0000
0000
0000
0000
0000
0000
0000
0000
0000
0000
0000
ENDCHAR
STARTCHAR 31  
ENCODING 31
SWIDTH    12000    0 
DWIDTH    12    0 
BBX  12  18  0   -3
BITMAP
0000
0000
0000
0000
0000
0000
0000
0000
0000
0000
0000
0000
0000
0000
0000
0000
0000
0000
ENDCHAR
STARTCHAR 32  
ENCODING 32
SWIDTH    12000    0 
DWIDTH    12    0 
BBX  12  18  0   -3
BITMAP
0000
0000
0000
0000
0000
0000
0000
0000
0000
0000
0000
0000
0000
0000
0000
0000
0000
0000
ENDCHAR
STARTCHAR 33  
ENCODING 33
SWIDTH    12000    0 
DWIDTH    12    0 
BBX  12  18  0   -3
BITMAP
0000
0000
0600
0F00
0F00
0F00
0F00
0600
0600
0600
0600
0000
0000
0600
0600
0000
0000
0000
ENDCHAR
STARTCHAR 34  
ENCODING 34
SWIDTH    12000    0 
DWIDTH    12    0 
BBX  12  18  0   -3
BITMAP
0000
0000
1980
1980
1980
1980
0000
0000
0000
0000
0000
0000
0000
0000
0000
0000
0000
0000
ENDCHAR
STARTCHAR 35  
ENCODING 35
SWIDTH    12000    0 
DWIDTH    12    0 
BBX  12  18  0   -3
BITMAP
0000
0000
0000
1B00
1B00
1B00
7FC0
7FC0
1B00
1B00
7FC0
7FC0
1B00
1B00
1B00
0000
0000
0000
ENDCHAR
STARTCHAR 36  
ENCODING 36
SWIDTH    12000    0 
DWIDTH    12    0 
BBX  12  18  0   -3
BITMAP
0000
0000
0200
0F80
1FC0
3AE0
3A40
3E00
1F80
07C0
03E0
12E0
3AE0
1FC0
0F80
0200
0000
0000
ENDCHAR
STARTCHAR 37  
ENCODING 37
SWIDTH    12000    0 
DWIDTH    12    0 
BBX  12  18  0   -3
BITMAP
0000
0000
0000
0000
3820
6C60
6CC0
3980
0300
0600
0C00
19C0
3360
6360
41C0
0000
0000
0000
ENDCHAR
STARTCHAR 38  
ENCODING 38
SWIDTH    12000    0 
DWIDTH    12    0 
BBX  12  18  0   -3
BITMAP
0000
0000
0E00
1F00
3180
3180
3B80
1F00
3E20
7760
63C0
6180
73C0
3FC0
1E60
0000
0000
0000
ENDCHAR
STARTCHAR 39  
ENCODING 39
SWIDTH    12000    0 
DWIDTH    12    0 
BBX  12  18  0   -3
BITMAP
0000
0000
0600
0600
0200
0400
0000
0000
0000
0000
0000
0000
0000
0000
0000
0000
0000
0000
ENDCHAR
STARTCHAR 40  
ENCODING 40
SWIDTH    12000    0 
DWIDTH    12    0 
BBX  12  18  0   -3
BITMAP
0000
0300
0600
0C00
0C00
0C00
1800
1800
1800
1800
1800
0C00
0C00
0C00
0600
0300
0000
0000
ENDCHAR
STARTCHAR 41  
ENCODING 41
SWIDTH    12000    0 
DWIDTH    12    0 
BBX  12  18  0   -3
BITMAP
0000
1800
0C00
0600
0600
0600
0300
0300
0300
0300
0300
0600
0600
0600
0C00
1800
0000
0000
ENDCHAR
STARTCHAR 42  
ENCODING 42
SWIDTH    12000    0 
DWIDTH    12    0 
BBX  12  18  0   -3
BITMAP
0000
0000
0000
0000
0000
0400
3580
1F00
0E00
7BC0
0E00
1F00
3580
0400
0000
0000
0000
0000
ENDCHAR
STARTCHAR 43  
ENCODING 43
SWIDTH    12000    0 
DWIDTH    12    0 
BBX  12  18  0   -3
BITMAP
0000
0000
0000
0000
0000
0000
0600
0600
0600
3FC0
3FC0
0600
0600
0600
0000
0000
0000
0000
ENDCHAR
STARTCHAR 44  
ENCODING 44
SWIDTH    12000    0 
DWIDTH    12    0 
BBX  12  18  0   -3
BITMAP
0000
0000
0000
0000
0000
0000
0000
0000
0000
0000
0000
0000
0000
0600
0600
0200
0400
0000
ENDCHAR
STARTCHAR 45  
ENCODING 45
SWIDTH    12000    0 
DWIDTH    12    0 
BBX  12  18  0   -3
BITMAP
0000
0000
0000
0000
0000
0000
0000
0000
0000
3FC0
3FC0
0000
0000
0000
0000
0000
0000
0000
ENDCHAR
STARTCHAR 46  
ENCODING 46
SWIDTH    12000    0 
DWIDTH    12    0 
BBX  12  18  0   -3
BITMAP
0000
0000
0000
0000
0000
0000
0000
0000
0000
0000
0000
0000
0000
0600
0600
0000
0000
0000
ENDCHAR
STARTCHAR 47  
ENCODING 47
SWIDTH    12000    0 
DWIDTH    12    0 
BBX  12  18  0   -3
BITMAP
0000
0000
0000
00C0
00C0
0180
0180
0300
0600
0600
0C00
1800
1800
3000
3000
0000
0000
0000
ENDCHAR
STARTCHAR 48  
ENCODING 48
SWIDTH    12000    0 
DWIDTH    12    0 
BBX  12  18  0   -3
BITMAP
0000
0000
3F80
71C0
60C0
60C0
60C0
60C0
60C0
60C0
60C0
60C0
60C0
71C0
3F80
0000
0000
0000
ENDCHAR
STARTCHAR 49  
ENCODING 49
SWIDTH    12000    0 
DWIDTH    12    0 
BBX  12  18  0   -3
BITMAP
0000
0000
0600
0E00
1E00
0600
0600
0600
0600
0600
0600
0600
0600
0600
3FC0
0000
0000
0000
ENDCHAR
STARTCHAR 50  
ENCODING 50
SWIDTH    12000    0 
DWIDTH    12    0 
BBX  12  18  0   -3
BITMAP
0000
0000
1F80
31C0
30C0
00C0
00C0
00C0
0180
0300
0600
1C00
3000
6000
7FC0
0000
0000
0000
ENDCHAR
STARTCHAR 51  
ENCODING 51
SWIDTH    12000    0 
DWIDTH    12    0 
BBX  12  18  0   -3
BITMAP
0000
0000
7FC0
00C0
00C0
0180
0300
0600
0F80
01C0
00C0
00C0
00C0
61C0
3F80
0000
0000
0000
ENDCHAR
STARTCHAR 52  
ENCODING 52
SWIDTH    12000    0 
DWIDTH    12    0 
BBX  12  18  0   -3
BITMAP
0000
0000
0080
0180
0380
0780
0D80
1980
3180
6180
7FC0
0180
0180
0180
0180
0000
0000
0000
ENDCHAR
STARTCHAR 53  
ENCODING 53
SWIDTH    12000    0 
DWIDTH    12    0 
BBX  12  18  0   -3
BITMAP
0000
0000
7FC0
6000
6000
6000
6000
7F80
71C0
00C0
00C0
00C0
00C0
61C0
3F80
0000
0000
0000
ENDCHAR
STARTCHAR 54  
ENCODING 54
SWIDTH    12000    0 
DWIDTH    12    0 
BBX  12  18  0   -3
BITMAP
0000
0000
1F80
30C0
6000
6000
6000
7F80
71C0
60C0
60C0
60C0
60C0
71C0
3F80
0000
0000
0000
ENDCHAR
STARTCHAR 55  
ENCODING 55
SWIDTH    12000    0 
DWIDTH    12    0 
BBX  12  18  0   -3
BITMAP
0000
0000
7FC0
00C0
00C0
0180
0300
0300
0600
0600
0C00
1800
1800
3000
3000
0000
0000
0000
ENDCHAR
STARTCHAR 56  
ENCODING 56
SWIDTH    12000    0 
DWIDTH    12    0 
BBX  12  18  0   -3
BITMAP
0000
0000
3F80
71C0
60C0
60C0
60C0
71C0
3F80
71C0
60C0
60C0
60C0
71C0
3F80
0000
0000
0000
ENDCHAR
STARTCHAR 57  
ENCODING 57
SWIDTH    12000    0 
DWIDTH    12    0 
BBX  12  18  0   -3
BITMAP
0000
0000
3F80
71C0
60C0
60C0
60C0
60C0
71C0
3FC0
00C0
00C0
00C0
6180
3F00
0000
0000
0000
ENDCHAR
STARTCHAR 58  
ENCODING 58
SWIDTH    12000    0 
DWIDTH    12    0 
BBX  12  18  0   -3
BITMAP
0000
0000
0000
0000
0000
0000
0000
0000
0600
0600
0000
0000
0000
0600
0600
0000
0000
0000
ENDCHAR
STARTCHAR 59  
ENCODING 59
SWIDTH    12000    0 
DWIDTH    12    0 
BBX  12  18  0   -3
BITMAP
0000
0000
0000
0000
0000
0000
0000
0000
0600
0600
0000
0000
0000
0600
0600
0200
0400
0000
ENDCHAR
STARTCHAR 60  
ENCODING 60
SWIDTH    12000    0 
DWIDTH    12    0 
BBX  12  18  0   -3
BITMAP
0000
0000
0000
0180
0300
0600
0C00
1800
3000
3000
1800
0C00
0600
0300
0180
0000
0000
0000
ENDCHAR
STARTCHAR 61  
ENCODING 61
SWIDTH    12000    0 
DWIDTH    12    0 
BBX  12  18  0   -3
BITMAP
0000
0000
0000
0000
0000
0000
0000
0000
3F80
0000
0000
3F80
0000
0000
0000
0000
0000
0000
ENDCHAR
STARTCHAR 62  
ENCODING 62
SWIDTH    12000    0 
DWIDTH    12    0 
BBX  12  18  0   -3
BITMAP
0000
0000
0000
3000
1800
0C00
0600
0300
0180
0180
0300
0600
0C00
1800
3000
0000
0000
0000
ENDCHAR
STARTCHAR 63  
ENCODING 63
SWIDTH    12000    0 
DWIDTH    12    0 
BBX  12  18  0   -3
BITMAP
0000
0000
3F80
71C0
60C0
00C0
00C0
0180
0300
0600
0600
0600
0000
0600
0600
0000
0000
0000
ENDCHAR
STARTCHAR 64  
ENCODING 64
SWIDTH    12000    0 
DWIDTH    12    0 
BBX  12  18  0   -3
BITMAP
0000
0000
0000
0F00
3080
2D40
5B40
5B40
5B40
5B40
5B40
5B80
2F00
30C0
0F00
0000
0000
0000
ENDCHAR
STARTCHAR 65  
ENCODING 65
SWIDTH    12000    0 
DWIDTH    12    0 
BBX  12  18  0   -3
BITMAP
0000
0000
0400
0E00
1B00
3180
60C0
60C0
60C0
60C0
7FC0
60C0
60C0
60C0
60C0
0000
0000
0000
ENDCHAR
STARTCHAR 66  
ENCODING 66
SWIDTH    12000    0 
DWIDTH    12    0 
BBX  12  18  0   -3
BITMAP
0000
0000
7F00
6180
60C0
60C0
60C0
6180
7F00
6180
60C0
60C0
60C0
6180
7F00
0000
0000
0000
ENDCHAR
STARTCHAR 67  
ENCODING 67
SWIDTH    12000    0 
DWIDTH    12    0 
BBX  12  18  0   -3
BITMAP
0000
0000
1F80
30C0
6000
6000
6000
6000
6000
6000
6000
6000
6000
30C0
1F80
0000
0000
0000
ENDCHAR
STARTCHAR 68  
ENCODING 68
SWIDTH    12000    0 
DWIDTH    12    0 
BBX  12  18  0   -3
BITMAP
0000
0000
7F00
6180
60C0
60C0
60C0
60C0
60C0
60C0
60C0
60C0
60C0
6180
7F00
0000
0000
0000
ENDCHAR
STARTCHAR 69  
ENCODING 69
SWIDTH    12000    0 
DWIDTH    12    0 
BBX  12  18  0   -3
BITMAP
0000
0000
7FC0
6000
6000
6000
6000
6000
7E00
6000
6000
6000
6000
6000
7FC0
0000
0000
0000
ENDCHAR
STARTCHAR 70  
ENCODING 70
SWIDTH    12000    0 
DWIDTH    12    0 
BBX  12  18  0   -3
BITMAP
0000
0000
7FC0
6000
6000
6000
6000
6000
7E00
6000
6000
6000
6000
6000
6000
0000
0000
0000
ENDCHAR
STARTCHAR 71  
ENCODING 71
SWIDTH    12000    0 
DWIDTH    12    0 
BBX  12  18  0   -3
BITMAP
0000
0000
1F80
30C0
6000
6000
6000
6000
6000
63C0
60C0
60C0
60C0
3180
1F00
0000
0000
0000
ENDCHAR
STARTCHAR 72  
ENCODING 72
SWIDTH    12000    0 
DWIDTH    12    0 
BBX  12  18  0   -3
BITMAP
0000
0000
60C0
60C0
60C0
60C0
60C0
60C0
7FC0
60C0
60C0
60C0
60C0
60C0
60C0
0000
0000
0000
ENDCHAR
STARTCHAR 73  
ENCODING 73
SWIDTH    12000    0 
DWIDTH    12    0 
BBX  12  18  0   -3
BITMAP
0000
0000
1F80
0600
0600
0600
0600
0600
0600
0600
0600
0600
0600
0600
1F80
0000
0000
0000
ENDCHAR
STARTCHAR 74  
ENCODING 74
SWIDTH    12000    0 
DWIDTH    12    0 
BBX  12  18  0   -3
BITMAP
0000
0000
07C0
0180
0180
0180
0180
0180
0180
0180
0180
0180
0180
6180
3F00
0000
0000
0000
ENDCHAR
STARTCHAR 75  
ENCODING 75
SWIDTH    12000    0 
DWIDTH    12    0 
BBX  12  18  0   -3
BITMAP
0000
0000
60C0
6180
6300
6600
6C00
7800
7800
7800
6C00
6600
6300
6180
60C0
0000
0000
0000
ENDCHAR
STARTCHAR 76  
ENCODING 76
SWIDTH    12000    0 
DWIDTH    12    0 
BBX  12  18  0   -3
BITMAP
0000
0000
6000
6000
6000
6000
6000
6000
6000
6000
6000
6000
6000
6000
7FC0
0000
0000
0000
ENDCHAR
STARTCHAR 77  
ENCODING 77
SWIDTH    12000    0 
DWIDTH    12    0 
BBX  12  18  0   -3
BITMAP
0000
0000
6060
6060
70E0
79E0
6F60
6660
6660
6060
6060
6060
6060
6060
6060
0000
0000
0000
ENDCHAR
STARTCHAR 78  
ENCODING 78
SWIDTH    12000    0 
DWIDTH    12    0 
BBX  12  18  0   -3
BITMAP
0000
0000
60C0
60C0
60C0
70C0
78C0
6CC0
66C0
63C0
61C0
60C0
60C0
60C0
60C0
0000
0000
0000
ENDCHAR
STARTCHAR 79  
ENCODING 79
SWIDTH    12000    0 
DWIDTH    12    0 
BBX  12  18  0   -3
BITMAP
0000
0000
1F00
3180
3180
60C0
60C0
60C0
60C0
60C0
60C0
60C0
3180
3180
1F00
0000
0000
0000
ENDCHAR
STARTCHAR 80  
ENCODING 80
SWIDTH    12000    0 
DWIDTH    12    0 
BBX  12  18  0   -3
BITMAP
0000
0000
7F80
61C0
60C0
60C0
60C0
61C0
7F80
6000
6000
6000
6000
6000
6000
0000
0000
0000
ENDCHAR
STARTCHAR 81  
ENCODING 81
SWIDTH    12000    0 
DWIDTH    12    0 
BBX  12  18  0   -3
BITMAP
0000
0000
1F00
3180
3180
60C0
60C0
60C0
60C0
60C0
60C0
66C0
3380
3180
1FC0
0040
0000
0000
ENDCHAR
STARTCHAR 82  
ENCODING 82
SWIDTH    12000    0 
DWIDTH    12    0 
BBX  12  18  0   -3
BITMAP
0000
0000
7F80
61C0
60C0
60C0
60C0
61C0
7F80
6C00
6600
6300
6180
60C0
60C0
0000
0000
0000
ENDCHAR
STARTCHAR 83  
ENCODING 83
SWIDTH    12000    0 
DWIDTH    12    0 
BBX  12  18  0   -3
BITMAP
0000
0000
3F80
70C0
6000
6000
6000
7000
3F80
01C0
00C0
00C0
00C0
61C0
3F80
0000
0000
0000
ENDCHAR
STARTCHAR 84  
ENCODING 84
SWIDTH    12000    0 
DWIDTH    12    0 
BBX  12  18  0   -3
BITMAP
0000
0000
7FE0
0600
0600
0600
0600
0600
0600
0600
0600
0600
0600
0600
0600
0000
0000
0000
ENDCHAR
STARTCHAR 85  
ENCODING 85
SWIDTH    12000    0 
DWIDTH    12    0 
BBX  12  18  0   -3
BITMAP
0000
0000
60C0
60C0
60C0
60C0
60C0
60C0
60C0
60C0
60C0
60C0
60C0
3180
3F80
0000
0000
0000
ENDCHAR
STARTCHAR 86  
ENCODING 86
SWIDTH    12000    0 
DWIDTH    12    0 
BBX  12  18  0   -3
BITMAP
0000
0000
60C0
60C0
60C0
60C0
3180
3180
3180
1B00
1B00
1B00
0E00
0E00
0400
0000
0000
0000
ENDCHAR
STARTCHAR 87  
ENCODING 87
SWIDTH    12000    0 
DWIDTH    12    0 
BBX  12  18  0   -3
BITMAP
0000
0000
6060
6060
6060
6060
6060
6060
6660
6660
6F60
79E0
70E0
6060
6060
0000
0000
0000
ENDCHAR
STARTCHAR 88  
ENCODING 88
SWIDTH    12000    0 
DWIDTH    12    0 
BBX  12  18  0   -3
BITMAP
0000
0000
60C0
60C0
3180
3180
1B00
1F00
0E00
1F00
1B00
3180
3180
60C0
60C0
0000
0000
0000
ENDCHAR
STARTCHAR 89  
ENCODING 89
SWIDTH    12000    0 
DWIDTH    12    0 
BBX  12  18  0   -3
BITMAP
0000
0000
6060
6060
30C0
30C0
1980
1980
0F00
0F00
0600
0600
0600
0600
0600
0000
0000
0000
ENDCHAR
STARTCHAR 90  
ENCODING 90
SWIDTH    12000    0 
DWIDTH    12    0 
BBX  12  18  0   -3
BITMAP
0000
0000
7FC0
00C0
0180
0380
0300
0600
0E00
0C00
1800
3800
3000
6000
7FC0
0000
0000
0000
ENDCHAR
STARTCHAR 91  
ENCODING 91
SWIDTH    12000    0 
DWIDTH    12    0 
BBX  12  18  0   -3
BITMAP
0000
0000
1F00
1800
1800
1800
1800
1800
1800
1800
1800
1800
1800
1800
1F00
0000
0000
0000
ENDCHAR
STARTCHAR 92  
ENCODING 92
SWIDTH    12000    0 
DWIDTH    12    0 
BBX  12  18  0   -3
BITMAP
0000
0000
0000
3000
3000
1800
1800
0C00
0600
0600
0300
0180
0180
00C0
00C0
0000
0000
0000
ENDCHAR
STARTCHAR 93  
ENCODING 93
SWIDTH    12000    0 
DWIDTH    12    0 
BBX  12  18  0   -3
BITMAP
0000
0000
1F00
0300
0300
0300
0300
0300
0300
0300
0300
0300
0300
0300
1F00
0000
0000
0000
ENDCHAR
STARTCHAR 94  
ENCODING 94
SWIDTH    12000    0 
DWIDTH    12    0 
BBX  12  18  0   -3
BITMAP
0000
0000
0000
0400
0E00
1B00
3180
60C0
0000
0000
0000
0000
0000
0000
0000
0000
0000
0000
ENDCHAR
STARTCHAR 95  
ENCODING 95
SWIDTH    12000    0 
DWIDTH    12    0 
BBX  12  18  0   -3
BITMAP
0000
0000
0000
0000
0000
0000
0000
0000
0000
0000
0000
0000
0000
0000
FFF0
FFF0
0000
0000
ENDCHAR
STARTCHAR 96  
ENCODING 96
SWIDTH    12000    0 
DWIDTH    12    0 
BBX  12  18  0   -3
BITMAP
0000
0000
0600
0600
0400
0200
0000
0000
0000
0000
0000
0000
0000
0000
0000
0000
0000
0000
ENDCHAR
STARTCHAR 97  
ENCODING 97
SWIDTH    12000    0 
DWIDTH    12    0 
BBX  12  18  0   -3
BITMAP
0000
0000
0000
0000
0000
0000
0000
3F80
00C0
00C0
3FC0
60C0
60C0
61C0
3EC0
0000
0000
0000
ENDCHAR
STARTCHAR 98  
ENCODING 98
SWIDTH    12000    0 
DWIDTH    12    0 
BBX  12  18  0   -3
BITMAP
0000
0000
6000
6000
6000
6000
6000
6F80
71C0
60C0
60C0
60C0
60C0
71C0
6F80
0000
0000
0000
ENDCHAR
STARTCHAR 99  
ENCODING 99
SWIDTH    12000    0 
DWIDTH    12    0 
BBX  12  18  0   -3
BITMAP
0000
0000
0000
0000
0000
0000
0000
3F80
70C0
6000
6000
6000
6000
70C0
3F80
0000
0000
0000
ENDCHAR
STARTCHAR 100  
ENCODING 100
SWIDTH    12000    0 
DWIDTH    12    0 
BBX  12  18  0   -3
BITMAP
0000
0000
00C0
00C0
00C0
00C0
00C0
3EC0
71C0
60C0
60C0
60C0
60C0
71C0
3EC0
0000
0000
0000
ENDCHAR
STARTCHAR 101  
ENCODING 101
SWIDTH    12000    0 
DWIDTH    12    0 
BBX  12  18  0   -3
BITMAP
0000
0000
0000
0000
0000
0000
0000
3F80
70C0
60C0
7FC0
6000
6000
70C0
3F80
0000
0000
0000
ENDCHAR
STARTCHAR 102  
ENCODING 102
SWIDTH    12000    0 
DWIDTH    12    0 
BBX  12  18  0   -3
BITMAP
0000
0000
0780
0C40
0C00
0C00
0C00
0C00
3F80
0C00
0C00
0C00
0C00
0C00
0C00
0000
0000
0000
ENDCHAR
STARTCHAR 103  
ENCODING 103
SWIDTH    12000    0 
DWIDTH    12    0 
BBX  12  18  0   -3
BITMAP
0000
0000
0000
0000
0000
0000
0000
3EC0
61C0
60C0
60C0
60C0
61C0
3EC0
00C0
00C0
61C0
3F80
ENDCHAR
STARTCHAR 104  
ENCODING 104
SWIDTH    12000    0 
DWIDTH    12    0 
BBX  12  18  0   -3
BITMAP
0000
0000
6000
6000
6000
6000
6000
6F80
71C0
60C0
60C0
60C0
60C0
60C0
60C0
0000
0000
0000
ENDCHAR
STARTCHAR 105  
ENCODING 105
SWIDTH    12000    0 
DWIDTH    12    0 
BBX  12  18  0   -3
BITMAP
0000
0000
0000
0000
0600
0600
0000
0E00
0600
0600
0600
0600
0600
0600
1F80
0000
0000
0000
ENDCHAR
STARTCHAR 106  
ENCODING 106
SWIDTH    12000    0 
DWIDTH    12    0 
BBX  12  18  0   -3
BITMAP
0000
0000
0000
0000
0180
0180
0000
0780
0180
0180
0180
0180
0180
0180
0180
0180
3380
1F00
ENDCHAR
STARTCHAR 107  
ENCODING 107
SWIDTH    12000    0 
DWIDTH    12    0 
BBX  12  18  0   -3
BITMAP
0000
0000
3000
3000
3000
3000
3000
3000
30C0
3380
3E00
3800
3E00
3380
30C0
0000
0000
0000
ENDCHAR
STARTCHAR 108  
ENCODING 108
SWIDTH    12000    0 
DWIDTH    12    0 
BBX  12  18  0   -3
BITMAP
0000
0000
0E00
0600
0600
0600
0600
0600
0600
0600
0600
0600
0600
0600
1F80
0000
0000
0000
ENDCHAR
STARTCHAR 109  
ENCODING 109
SWIDTH    12000    0 
DWIDTH    12    0 
BBX  12  18  0   -3
BITMAP
0000
0000
0000
0000
0000
0000
0000
79C0
7FE0
6660
6660
6660
6060
6060
6060
0000
0000
0000
ENDCHAR
STARTCHAR 110  
ENCODING 110
SWIDTH    12000    0 
DWIDTH    12    0 
BBX  12  18  0   -3
BITMAP
0000
0000
0000
0000
0000
0000
0000
6F80
71C0
60C0
60C0
60C0
60C0
60C0
60C0
0000
0000
0000
ENDCHAR
STARTCHAR 111  
ENCODING 111
SWIDTH    12000    0 
DWIDTH    12    0 
BBX  12  18  0   -3
BITMAP
0000
0000
0000
0000
0000
0000
0000
1F00
3180
60C0
60C0
60C0
60C0
3180
1F00
0000
0000
0000
ENDCHAR
STARTCHAR 112  
ENCODING 112
SWIDTH    12000    0 
DWIDTH    12    0 
BBX  12  18  0   -3
BITMAP
0000
0000
0000
0000
0000
0000
0000
6F80
71C0
60C0
60C0
60C0
60C0
71C0
6F80
6000
6000
6000
ENDCHAR
STARTCHAR 113  
ENCODING 113
SWIDTH    12000    0 
DWIDTH    12    0 
BBX  12  18  0   -3
BITMAP
0000
0000
0000
0000
0000
0000
0000
3EC0
71C0
60C0
60C0
60C0
60C0
71C0
3EC0
00C0
00C0
00C0
ENDCHAR
STARTCHAR 114  
ENCODING 114
SWIDTH    12000    0 
DWIDTH    12    0 
BBX  12  18  0   -3
BITMAP
0000
0000
0000
0000
0000
0000
0000
6F80
38C0
3000
3000
3000
3000
3000
3000
0000
0000
0000
ENDCHAR
STARTCHAR 115  
ENCODING 115
SWIDTH    12000    0 
DWIDTH    12    0 
BBX  12  18  0   -3
BITMAP
0000
0000
0000
0000
0000
0000
0000
3F80
60C0
6000
3E00
0F80
00C0
60C0
3F80
0000
0000
0000
ENDCHAR
STARTCHAR 116  
ENCODING 116
SWIDTH    12000    0 
DWIDTH    12    0 
BBX  12  18  0   -3
BITMAP
0000
0000
0000
0000
0C00
0C00
0C00
3F80
0C00
0C00
0C00
0C00
0C00
0C40
0780
0000
0000
0000
ENDCHAR
STARTCHAR 117  
ENCODING 117
SWIDTH    12000    0 
DWIDTH    12    0 
BBX  12  18  0   -3
BITMAP
0000
0000
0000
0000
0000
0000
0000
60C0
60C0
60C0
60C0
60C0
60C0
71C0
3FA0
0000
0000
0000
ENDCHAR
STARTCHAR 118  
ENCODING 118
SWIDTH    12000    0 
DWIDTH    12    0 
BBX  12  18  0   -3
BITMAP
0000
0000
0000
0000
0000
0000
0000
60C0
60C0
3180
3180
1B00
1F00
0E00
0400
0000
0000
0000
ENDCHAR
STARTCHAR 119  
ENCODING 119
SWIDTH    12000    0 
DWIDTH    12    0 
BBX  12  18  0   -3
BITMAP
0000
0000
0000
0000
0000
0000
0000
6060
6060
6060
6660
6F60
7FE0
79E0
30C0
0000
0000
0000
ENDCHAR
STARTCHAR 120  
ENCODING 120
SWIDTH    12000    0 
DWIDTH    12    0 
BBX  12  18  0   -3
BITMAP
0000
0000
0000
0000
0000
0000
0000
60C0
3180
1B00
0E00
0E00
1B00
3180
60C0
0000
0000
0000
ENDCHAR
STARTCHAR 121  
ENCODING 121
SWIDTH    12000    0 
DWIDTH    12    0 
BBX  12  18  0   -3
BITMAP
0000
0000
0000
0000
0000
0000
0000
60C0
60C0
60C0
60C0
60C0
71C0
3EC0
00C0
00C0
60C0
3F80
ENDCHAR
STARTCHAR 122  
ENCODING 122
SWIDTH    12000    0 
DWIDTH    12    0 
BBX  12  18  0   -3
BITMAP
0000
0000
0000
0000
0000
0000
0000
7FC0
0180
0300
0600
0C00
1800
3000
7FC0
0000
0000
0000
ENDCHAR
STARTCHAR 123  
ENCODING 123
SWIDTH    12000    0 
DWIDTH    12    0 
BBX  12  18  0   -3
BITMAP
0000
0000
0380
0600
0600
0600
0600
0600
1C00
1C00
0600
0600
0600
0600
0600
0380
0000
0000
ENDCHAR
STARTCHAR 124  
ENCODING 124
SWIDTH    12000    0 
DWIDTH    12    0 
BBX  12  18  0   -3
BITMAP
0000
0000
0600
0600
0600
0600
0600
0600
0600
0600
0600
0600
0600
0600
0600
0000
0000
0000
ENDCHAR
STARTCHAR 125  
ENCODING 125
SWIDTH    12000    0 
DWIDTH    12    0 
BBX  12  18  0   -3
BITMAP
0000
0000
1C00
0600
0600
0600
0600
0600
0380
0380
0600
0600
0600
0600
0600
1C00
0000
0000
ENDCHAR
STARTCHAR 126  
ENCODING 126
SWIDTH    12000    0 
DWIDTH    12    0 
BBX  12  18  0   -3
BITMAP
0000
0000
0000
0000
0000
0000
0000
0000
3CC0
7FC0
6780
0000
0000
0000
0000
0000
0000
0000
ENDCHAR
STARTCHAR 127  
ENCODING 127
SWIDTH    12000    0 
DWIDTH    12    0 
BBX  12  18  0   -3
BITMAP
5550
AAA0
5550
AAA0
5550
AAA0
5550
AAA0
5550
AAA0
5550
AAA0
5550
AAA0
5550
AAA0
5550
AAA0
ENDCHAR
STARTCHAR 128  
ENCODING 128
SWIDTH    12000    0 
DWIDTH    12    0 
BBX  12  18  0   -3
BITMAP
0000
0000
0000
0000
0000
0000
0000
0000
0000
0000
0000
0000
0000
0000
0000
0000
0000
0000
ENDCHAR
STARTCHAR 129  
ENCODING 129
SWIDTH    12000    0 
DWIDTH    12    0 
BBX  12  18  0   -3
BITMAP
0000
0000
0000
0000
0000
0000
0000
0000
0000
0000
0000
0000
0000
0000
0000
0000
0000
0000
ENDCHAR
STARTCHAR 130  
ENCODING 130
SWIDTH    12000    0 
DWIDTH    12    0 
BBX  12  18  0   -3
BITMAP
0000
0000
0000
0000
0000
0000
0000
0000
0000
0000
0000
0000
0000
0000
0000
0000
0000
0000
ENDCHAR
STARTCHAR 131  
ENCODING 131
SWIDTH    12000    0 
DWIDTH    12    0 
BBX  12  18  0   -3
BITMAP
0000
0000
0000
0000
0000
0000
0000
0000
0000
0000
0000
0000
0000
0000
0000
0000
0000
0000
ENDCHAR
STARTCHAR 132  
ENCODING 132
SWIDTH    12000    0 
DWIDTH    12    0 
BBX  12  18  0   -3
BITMAP
0000
0000
0000
0000
0000
0000
0000
0000
0000
0000
0000
0000
0000
0000
0000
0000
0000
0000
ENDCHAR
STARTCHAR 133  
ENCODING 133
SWIDTH    12000    0 
DWIDTH    12    0 
BBX  12  18  0   -3
BITMAP
0000
0000
0000
0000
0000
0000
0000
0000
0000
0000
0000
0000
0000
0000
0000
0000
0000
0000
ENDCHAR
STARTCHAR 134  
ENCODING 134
SWIDTH    12000    0 
DWIDTH    12    0 
BBX  12  18  0   -3
BITMAP
0000
0000
0000
0000
0000
0000
0000
0000
0000
0000
0000
0000
0000
0000
0000
0000
0000
0000
ENDCHAR
STARTCHAR 135  
ENCODING 135
SWIDTH    12000    0 
DWIDTH    12    0 
BBX  12  18  0   -3
BITMAP
0000
0000
0000
0000
0000
0000
0000
0000
0000
0000
0000
0000
0000
0000
0000
0000
0000
0000
ENDCHAR
STARTCHAR 136  
ENCODING 136
SWIDTH    12000    0 
DWIDTH    12    0 
BBX  12  18  0   -3
BITMAP
0000
0000
0000
0000
0000
0000
0000
0000
0000
0000
0000
0000
0000
0000
0000
0000
0000
0000
ENDCHAR
STARTCHAR 137  
ENCODING 137
SWIDTH    12000    0 
DWIDTH    12    0 
BBX  12  18  0   -3
BITMAP
0000
0000
0000
0000
0000
0000
0000
0000
0000
0000
0000
0000
0000
0000
0000
0000
0000
0000
ENDCHAR
STARTCHAR 138  
ENCODING 138
SWIDTH    12000    0 
DWIDTH    12    0 
BBX  12  18  0   -3
BITMAP
0000
0000
0000
0000
0000
0000
0000
0000
0000
0000
0000
0000
0000
0000
0000
0000
0000
0000
ENDCHAR
STARTCHAR 139  
ENCODING 139
SWIDTH    12000    0 
DWIDTH    12    0 
BBX  12  18  0   -3
BITMAP
0000
0000
0000
0000
0000
0000
0000
0000
0000
0000
0000
0000
0000
0000
0000
0000
0000
0000
ENDCHAR
STARTCHAR 140  
ENCODING 140
SWIDTH    12000    0 
DWIDTH    12    0 
BBX  12  18  0   -3
BITMAP
0000
0000
0000
0000
0000
0000
0000
0000
0000
0000
0000
0000
0000
0000
0000
0000
0000
0000
ENDCHAR
STARTCHAR 141  
ENCODING 141
SWIDTH    12000    0 
DWIDTH    12    0 
BBX  12  18  0   -3
BITMAP
0000
0000
0000
0000
0000
0000
0000
0000
0000
0000
0000
0000
0000
0000
0000
0000
0000
0000
ENDCHAR
STARTCHAR 142  
ENCODING 142
SWIDTH    12000    0 
DWIDTH    12    0 
BBX  12  18  0   -3
BITMAP
0000
0000
0000
0000
0000
0000
0000
0000
0000
0000
0000
0000
0000
0000
0000
0000
0000
0000
ENDCHAR
STARTCHAR 143  
ENCODING 143
SWIDTH    12000    0 
DWIDTH    12    0 
BBX  12  18  0   -3
BITMAP
0000
0000
0000
0000
0000
0000
0000
0000
0000
0000
0000
0000
0000
0000
0000
0000
0000
0000
ENDCHAR
STARTCHAR 144  
ENCODING 144
SWIDTH    12000    0 
DWIDTH    12    0 
BBX  12  18  0   -3
BITMAP
0000
0000
0000
0000
0000
0000
0000
0000
0000
0000
0000
0000
0000
0000
0000
0000
0000
0000
ENDCHAR
STARTCHAR 145  
ENCODING 145
SWIDTH    12000    0 
DWIDTH    12    0 
BBX  12  18  0   -3
BITMAP
0000
0000
0000
0000
0000
0000
0000
0000
0000
0000
0000
0000
0000
0000
0000
0000
0000
0000
ENDCHAR
STARTCHAR 146  
ENCODING 146
SWIDTH    12000    0 
DWIDTH    12    0 
BBX  12  18  0   -3
BITMAP
0000
0000
0000
0000
0000
0000
0000
0000
0000
0000
0000
0000
0000
0000
0000
0000
0000
0000
ENDCHAR
STARTCHAR 147  
ENCODING 147
SWIDTH    12000    0 
DWIDTH    12    0 
BBX  12  18  0   -3
BITMAP
0000
0000
0000
0000
0000
0000
0000
0000
0000
0000
0000
0000
0000
0000
0000
0000
0000
0000
ENDCHAR
STARTCHAR 148  
ENCODING 148
SWIDTH    12000    0 
DWIDTH    12    0 
BBX  12  18  0   -3
BITMAP
0000
0000
0000
0000
0000
0000
0000
0000
0000
0000
0000
0000
0000
0000
0000
0000
0000
0000
ENDCHAR
STARTCHAR 149  
ENCODING 149
SWIDTH    12000    0 
DWIDTH    12    0 
BBX  12  18  0   -3
BITMAP
0000
0000
0000
0000
0000
0000
0000
0000
0000
0000
0000
0000
0000
0000
0000
0000
0000
0000
ENDCHAR
STARTCHAR 150  
ENCODING 150
SWIDTH    12000    0 
DWIDTH    12    0 
BBX  12  18  0   -3
BITMAP
0000
0000
0000
0000
0000
0000
0000
0000
0000
0000
0000
0000
0000
0000
0000
0000
0000
0000
ENDCHAR
STARTCHAR 151  
ENCODING 151
SWIDTH    12000    0 
DWIDTH    12    0 
BBX  12  18  0   -3
BITMAP
0000
0000
0000
0000
0000
0000
0000
0000
0000
0000
0000
0000
0000
0000
0000
0000
0000
0000
ENDCHAR
STARTCHAR 152  
ENCODING 152
SWIDTH    12000    0 
DWIDTH    12    0 
BBX  12  18  0   -3
BITMAP
0000
0000
0000
0000
0000
0000
0000
0000
0000
0000
0000
0000
0000
0000
0000
0000
0000
0000
ENDCHAR
STARTCHAR 153  
ENCODING 153
SWIDTH    12000    0 
DWIDTH    12    0 
BBX  12  18  0   -3
BITMAP
0000
0000
0000
0000
0000
0000
0000
0000
0000
0000
0000
0000
0000
0000
0000
0000
0000
0000
ENDCHAR
STARTCHAR 154  
ENCODING 154
SWIDTH    12000    0 
DWIDTH    12    0 
BBX  12  18  0   -3
BITMAP
0000
0000
0000
0000
0000
0000
0000
0000
0000
0000
0000
0000
0000
0000
0000
0000
0000
0000
ENDCHAR
STARTCHAR 155  
ENCODING 155
SWIDTH    12000    0 
DWIDTH    12    0 
BBX  12  18  0   -3
BITMAP
0000
0000
0000
0000
0000
0000
0000
0000
0000
0000
0000
0000
0000
0000
0000
0000
0000
0000
ENDCHAR
STARTCHAR 156  
ENCODING 156
SWIDTH    12000    0 
DWIDTH    12    0 
BBX  12  18  0   -3
BITMAP
0000
0000
0000
0000
0000
0000
0000
0000
0000
0000
0000
0000
0000
0000
0000
0000
0000
0000
ENDCHAR
STARTCHAR 157  
ENCODING 157
SWIDTH    12000    0 
DWIDTH    12    0 
BBX  12  18  0   -3
BITMAP
0000
0000
0000
0000
0000
0000
0000
0000
0000
0000
0000
0000
0000
0000
0000
0000
0000
0000
ENDCHAR
STARTCHAR 158  
ENCODING 158
SWIDTH    12000    0 
DWIDTH    12    0 
BBX  12  18  0   -3
BITMAP
0000
0000
0000
0000
0000
0000
0000
0000
0000
0000
0000
0000
0000
0000
0000
0000
0000
0000
ENDCHAR
STARTCHAR 159  
ENCODING 159
SWIDTH    12000    0 
DWIDTH    12    0 
BBX  12  18  0   -3
BITMAP
0000
0000
0000
0000
0000
0000
0000
0000
0000
0000
0000
0000
0000
0000
0000
0000
0000
0000
ENDCHAR
STARTCHAR 160  
ENCODING 160
SWIDTH    12000    0 
DWIDTH    12    0 
BBX  12  18  0   -3
BITMAP
0000
0000
0000
0000
0000
0000
0000
0000
0000
0000
0000
0000
0000
0000
0000
0000
0000
0000
ENDCHAR
STARTCHAR 161  
ENCODING 161
SWIDTH    12000    0 
DWIDTH    12    0 
BBX  12  18  0   -3
BITMAP
0000
0000
0600
0600
0000
0600
0600
0600
0600
0600
0600
0600
0600
0600
0600
0000
0000
0000
ENDCHAR
STARTCHAR 162  
ENCODING 162
SWIDTH    12000    0 
DWIDTH    12    0 
BBX  12  18  0   -3
BITMAP
0000
0000
0F80
1840
3000
3000
7F00
3000
3000
3000
7F00
3000
3000
1840
0F80
0000
0000
0000
ENDCHAR
STARTCHAR 163  
ENCODING 163
SWIDTH    12000    0 
DWIDTH    12    0 
BBX  12  18  0   -3
BITMAP
0000
0000
0380
0440
0C00
0C00
0C00
0C00
7F80
0C00
0C00
0C00
3F00
6CC0
3800
0000
0000
0000
ENDCHAR
STARTCHAR 164  
ENCODING 164
SWIDTH    12000    0 
DWIDTH    12    0 
BBX  12  18  0   -3
BITMAP
0000
0000
0000
0000
0000
0900
0900
36C0
0F00
0F00
36C0
0900
0900
0000
0000
0000
0000
0000
ENDCHAR
STARTCHAR 165  
ENCODING 165
SWIDTH    12000    0 
DWIDTH    12    0 
BBX  12  18  0   -3
BITMAP
0000
0000
0000
0000
30C0
30C0
1980
1980
0F00
3FC0
0600
3FC0
0600
0600
0600
0000
0000
0000
ENDCHAR
STARTCHAR 166  
ENCODING 166
SWIDTH    12000    0 
DWIDTH    12    0 
BBX  12  18  0   -3
BITMAP
0000
0000
0000
0000
0600
0600
0600
0600
0000
0000
0600
0600
0600
0600
0000
0000
0000
0000
ENDCHAR
STARTCHAR 167  
ENCODING 167
SWIDTH    12000    0 
DWIDTH    12    0 
BBX  12  18  0   -3
BITMAP
0000
0000
0F80
18C0
3000
3000
2F00
2080
1040
0F40
01C0
00C0
00C0
3080
1F00
0000
0000
0000
ENDCHAR
STARTCHAR 168  
ENCODING 168
SWIDTH    12000    0 
DWIDTH    12    0 
BBX  12  18  0   -3
BITMAP
0000
0000
0400
0400
0400
0600
0600
0600
1700
1D00
0C00
0C00
0C00
0400
0400
0400
0000
0000
ENDCHAR
STARTCHAR 169  
ENCODING 169
SWIDTH    12000    0 
DWIDTH    12    0 
BBX  12  18  0   -3
BITMAP
0000
0000
0000
0000
0000
0000
0000
0600
3C00
FFF0
03C0
0600
0000
0000
0000
0000
0000
0000
ENDCHAR
STARTCHAR 170  
ENCODING 170
SWIDTH    12000    0 
DWIDTH    12    0 
BBX  12  18  0   -3
BITMAP
0000
0000
0040
0080
0100
0300
0600
0E00
1C00
0700
0E00
0C00
1800
1000
2000
4000
0000
0000
ENDCHAR
STARTCHAR 171  
ENCODING 171
SWIDTH    12000    0 
DWIDTH    12    0 
BBX  12  18  0   -3
BITMAP
0000
0000
4000
2000
1000
1800
0C00
0E00
0700
1C00
0E00
0600
0300
0100
0080
0040
0000
0000
ENDCHAR
STARTCHAR 172  
ENCODING 172
SWIDTH    12000    0 
DWIDTH    12    0 
BBX  12  18  0   -3
BITMAP
0000
0000
0A00
2480
1500
4A40
3580
AEA0
5F40
5F40
AEA0
3580
4A40
1500
2480
0A00
0000
0000
ENDCHAR
STARTCHAR 173  
ENCODING 173
SWIDTH    12000    0 
DWIDTH    12    0 
BBX  12  18  0   -3
BITMAP
0000
0840
1080
5500
2900
0560
6580
9E80
0760
1F80
6E40
8920
1100
2280
2240
4440
0820
0000
ENDCHAR
STARTCHAR 174  
ENCODING 174
SWIDTH    12000    0 
DWIDTH    12    0 
BBX  12  18  0   -3
BITMAP
0000
0000
4920
2640
39C0
1680
39C0
5FA0
2F40
2F40
5FA0
39C0
1680
39C0
2640
4920
0000
0000
ENDCHAR
STARTCHAR 175  
ENCODING 175
SWIDTH    12000    0 
DWIDTH    12    0 
BBX  12  18  0   -3
BITMAP
0000
0000
0000
0000
0000
0000
0000
0000
0000
0000
0000
0000
0000
0000
0000
0000
0000
0000
ENDCHAR
STARTCHAR 176  
ENCODING 176
SWIDTH    12000    0 
DWIDTH    12    0 
BBX  12  18  0   -3
BITMAP
0000
0000
0000
0000
0000
0000
0000
0000
0000
0000
0000
0000
0000
0000
0000
0000
0000
0000
ENDCHAR
STARTCHAR 177  
ENCODING 177
SWIDTH    12000    0 
DWIDTH    12    0 
BBX  12  18  0   -3
BITMAP
0000
0000
0000
0000
0000
0000
0000
0000
0000
0000
0000
0000
0000
0000
0000
0000
0000
0000
ENDCHAR
STARTCHAR 178  
ENCODING 178
SWIDTH    12000    0 
DWIDTH    12    0 
BBX  12  18  0   -3
BITMAP
0000
0000
0000
0000
0000
0000
0000
0000
0000
0000
0000
0000
0000
0000
0000
0000
0000
0000
ENDCHAR
STARTCHAR 179  
ENCODING 179
SWIDTH    12000    0 
DWIDTH    12    0 
BBX  12  18  0   -3
BITMAP
0000
0000
0000
0000
0000
0000
0000
0000
0000
0000
0000
0000
0000
0000
0000
0000
0000
0000
ENDCHAR
STARTCHAR 180  
ENCODING 180
SWIDTH    12000    0 
DWIDTH    12    0 
BBX  12  18  0   -3
BITMAP
0000
0000
0000
0000
0000
0000
0000
0000
0000
0000
0000
0000
0000
0000
0000
0000
0000
0000
ENDCHAR
STARTCHAR 181  
ENCODING 181
SWIDTH    12000    0 
DWIDTH    12    0 
BBX  12  18  0   -3
BITMAP
0000
0000
0000
0000
0000
0000
0000
0000
0000
0000
0000
0000
0000
0000
0000
0000
0000
0000
ENDCHAR
STARTCHAR 182  
ENCODING 182
SWIDTH    12000    0 
DWIDTH    12    0 
BBX  12  18  0   -3
BITMAP
0000
0000
0000
0000
0000
0000
0000
0000
0000
0000
0000
0000
0000
0000
0000
0000
0000
0000
ENDCHAR
STARTCHAR 183  
ENCODING 183
SWIDTH    12000    0 
DWIDTH    12    0 
BBX  12  18  0   -3
BITMAP
0000
0000
0000
0000
0000
0000
0000
0000
0000
0000
0000
0000
0000
0000
0000
0000
0000
0000
ENDCHAR
STARTCHAR 184  
ENCODING 184
SWIDTH    12000    0 
DWIDTH    12    0 
BBX  12  18  0   -3
BITMAP
0000
0000
0000
0000
0000
0000
0000
0000
0000
0000
0000
0000
0000
0000
0000
0000
0000
0000
ENDCHAR
STARTCHAR 185  
ENCODING 185
SWIDTH    12000    0 
DWIDTH    12    0 
BBX  12  18  0   -3
BITMAP
0000
0000
0000
0000
0000
0000
0000
0000
0000
0000
0000
0000
0000
0000
0000
0000
0000
0000
ENDCHAR
STARTCHAR 186  
ENCODING 186
SWIDTH    12000    0 
DWIDTH    12    0 
BBX  12  18  0   -3
BITMAP
0000
0000
0000
0000
0000
0000
0000
0000
0000
0000
0000
0000
0000
0000
0000
0000
0000
0000
ENDCHAR
STARTCHAR 187  
ENCODING 187
SWIDTH    12000    0 
DWIDTH    12    0 
BBX  12  18  0   -3
BITMAP
0000
0000
0000
0000
0000
0000
0000
0000
0000
0000
0000
0000
0000
0000
0000
0000
0000
0000
ENDCHAR
STARTCHAR 188  
ENCODING 188
SWIDTH    12000    0 
DWIDTH    12    0 
BBX  12  18  0   -3
BITMAP
0000
0000
0000
0000
0000
0000
0000
0000
0000
0000
0000
0000
0000
0000
0000
0000
0000
0000
ENDCHAR
STARTCHAR 189  
ENCODING 189
SWIDTH    12000    0 
DWIDTH    12    0 
BBX  12  18  0   -3
BITMAP
0000
0000
0000
0000
0000
0000
0000
0000
0000
0000
0000
0000
0000
0000
0000
0000
0000
0000
ENDCHAR
STARTCHAR 190  
ENCODING 190
SWIDTH    12000    0 
DWIDTH    12    0 
BBX  12  18  0   -3
BITMAP
0000
0000
0000
0000
0000
0000
0000
0000
0000
0000
0000
0000
0000
0000
0000
0000
0000
0000
ENDCHAR
STARTCHAR 191  
ENCODING 191
SWIDTH    12000    0 
DWIDTH    12    0 
BBX  12  18  0   -3
BITMAP
0000
0000
0600
0600
0000
0600
0600
0600
0C00
1800
3000
3000
3060
38E0
1FC0
0000
0000
0000
ENDCHAR
STARTCHAR 192  
ENCODING 192
SWIDTH    12000    0 
DWIDTH    12    0 
BBX  12  18  0   -3
BITMAP
0800
0400
0000
0400
0E00
1B00
3180
60C0
60C0
60C0
7FC0
60C0
60C0
60C0
60C0
0000
0000
0000
ENDCHAR
STARTCHAR 193  
ENCODING 193
SWIDTH    12000    0 
DWIDTH    12    0 
BBX  12  18  0   -3
BITMAP
0200
0400
0000
0400
0E00
1B00
3180
60C0
60C0
60C0
7FC0
60C0
60C0
60C0
60C0
0000
0000
0000
ENDCHAR
STARTCHAR 194  
ENCODING 194
SWIDTH    12000    0 
DWIDTH    12    0 
BBX  12  18  0   -3
BITMAP
0400
0A00
0000
0400
0E00
1B00
3180
60C0
60C0
60C0
7FC0
60C0
60C0
60C0
60C0
0000
0000
0000
ENDCHAR
STARTCHAR 195  
ENCODING 195
SWIDTH    12000    0 
DWIDTH    12    0 
BBX  12  18  0   -3
BITMAP
0500
0A00
0000
0400
0E00
1B00
3180
60C0
60C0
60C0
7FC0
60C0
60C0
60C0
60C0
0000
0000
0000
ENDCHAR
STARTCHAR 196  
ENCODING 196
SWIDTH    12000    0 
DWIDTH    12    0 
BBX  12  18  0   -3
BITMAP
0000
1100
0000
0400
0E00
1B00
3180
60C0
60C0
60C0
7FC0
60C0
60C0
60C0
60C0
0000
0000
0000
ENDCHAR
STARTCHAR 197  
ENCODING 197
SWIDTH    12000    0 
DWIDTH    12    0 
BBX  12  18  0   -3
BITMAP
0A00
0400
0000
0400
0E00
1B00
3180
60C0
60C0
60C0
7FC0
60C0
60C0
60C0
60C0
0000
0000
0000
ENDCHAR
STARTCHAR 198  
ENCODING 198
SWIDTH    12000    0 
DWIDTH    12    0 
BBX  12  18  0   -3
BITMAP
0000
0000
1FE0
3300
6300
6300
6300
6300
7FE0
6300
6300
6300
6300
6300
63E0
0000
0000
0000
ENDCHAR
STARTCHAR 199  
ENCODING 199
SWIDTH    12000    0 
DWIDTH    12    0 
BBX  12  18  0   -3
BITMAP
0000
0000
1F80
30C0
6000
6000
6000
6000
6000
6000
6000
6000
6000
30C0
1F80
0200
0400
0000
ENDCHAR
STARTCHAR 200  
ENCODING 200
SWIDTH    12000    0 
DWIDTH    12    0 
BBX  12  18  0   -3
BITMAP
0400
0200
0000
7FC0
6000
6000
6000
6000
7E00
6000
6000
6000
6000
6000
7FC0
0000
0000
0000
ENDCHAR
STARTCHAR 201  
ENCODING 201
SWIDTH    12000    0 
DWIDTH    12    0 
BBX  12  18  0   -3
BITMAP
0200
0400
0000
7FC0
6000
6000
6000
6000
7E00
6000
6000
6000
6000
6000
7FC0
0000
0000
0000
ENDCHAR
STARTCHAR 202  
ENCODING 202
SWIDTH    12000    0 
DWIDTH    12    0 
BBX  12  18  0   -3
BITMAP
0600
0900
0000
7FC0
6000
6000
6000
6000
7E00
6000
6000
6000
6000
6000
7FC0
0000
0000
0000
ENDCHAR
STARTCHAR 203  
ENCODING 203
SWIDTH    12000    0 
DWIDTH    12    0 
BBX  12  18  0   -3
BITMAP
0000
1100
0000
7FC0
6000
6000
6000
6000
7E00
6000
6000
6000
6000
6000
7FC0
0000
0000
0000
ENDCHAR
STARTCHAR 204  
ENCODING 204
SWIDTH    12000    0 
DWIDTH    12    0 
BBX  12  18  0   -3
BITMAP
0400
0200
0000
1F80
0600
0600
0600
0600
0600
0600
0600
0600
0600
0600
1F80
0000
0000
0000
ENDCHAR
STARTCHAR 205  
ENCODING 205
SWIDTH    12000    0 
DWIDTH    12    0 
BBX  12  18  0   -3
BITMAP
0200
0400
0000
1F80
0600
0600
0600
0600
0600
0600
0600
0600
0600
0600
1F80
0000
0000
0000
ENDCHAR
STARTCHAR 206  
ENCODING 206
SWIDTH    12000    0 
DWIDTH    12    0 
BBX  12  18  0   -3
BITMAP
0600
0900
0000
1F80
0600
0600
0600
0600
0600
0600
0600
0600
0600
0600
1F80
0000
0000
0000
ENDCHAR
STARTCHAR 207  
ENCODING 207
SWIDTH    12000    0 
DWIDTH    12    0 
BBX  12  18  0   -3
BITMAP
0000
1080
0000
1F80
0600
0600
0600
0600
0600
0600
0600
0600
0600
0600
1F80
0000
0000
0000
ENDCHAR
STARTCHAR 208  
ENCODING 208
SWIDTH    12000    0 
DWIDTH    12    0 
BBX  12  18  0   -3
BITMAP
0000
0000
7F00
6180
60C0
60C0
60C0
60C0
FCC0
FCC0
60C0
60C0
60C0
6180
7F00
0000
0000
0000
ENDCHAR
STARTCHAR 209  
ENCODING 209
SWIDTH    12000    0 
DWIDTH    12    0 
BBX  12  18  0   -3
BITMAP
0500
0A00
0000
60C0
60C0
70C0
78C0
6CC0
66C0
63C0
61C0
60C0
60C0
60C0
60C0
0000
0000
0000
ENDCHAR
STARTCHAR 210  
ENCODING 210
SWIDTH    12000    0 
DWIDTH    12    0 
BBX  12  18  0   -3
BITMAP
0800
0400
0000
1F00
3180
3180
60C0
60C0
60C0
60C0
60C0
60C0
3180
3180
1F00
0000
0000
0000
ENDCHAR
STARTCHAR 211  
ENCODING 211
SWIDTH    12000    0 
DWIDTH    12    0 
BBX  12  18  0   -3
BITMAP
0200
0400
0000
1F00
3180
3180
60C0
60C0
60C0
60C0
60C0
60C0
3180
3180
1F00
0000
0000
0000
ENDCHAR
STARTCHAR 212  
ENCODING 212
SWIDTH    12000    0 
DWIDTH    12    0 
BBX  12  18  0   -3
BITMAP
0400
0A00
0000
1F00
3180
3180
60C0
60C0
60C0
60C0
60C0
60C0
3180
3180
1F00
0000
0000
0000
ENDCHAR
STARTCHAR 213  
ENCODING 213
SWIDTH    12000    0 
DWIDTH    12    0 
BBX  12  18  0   -3
BITMAP
0500
0A00
0000
1F00
3180
3180
60C0
60C0
60C0
60C0
60C0
60C0
3180
3180
1F00
0000
0000
0000
ENDCHAR
STARTCHAR 214  
ENCODING 214
SWIDTH    12000    0 
DWIDTH    12    0 
BBX  12  18  0   -3
BITMAP
0000
1100
0000
1F00
3180
3180
60C0
60C0
60C0
60C0
60C0
60C0
3180
3180
1F00
0000
0000
0000
ENDCHAR
STARTCHAR 215  
ENCODING 215
SWIDTH    12000    0 
DWIDTH    12    0 
BBX  12  18  0   -3
BITMAP
0000
0000
0000
0000
0000
0000
0000
0000
0000
0000
0000
0000
0000
0000
0000
0000
0000
0000
ENDCHAR
STARTCHAR 216  
ENCODING 216
SWIDTH    12000    0 
DWIDTH    12    0 
BBX  12  18  0   -3
BITMAP
0000
0000
0000
1F40
3180
3180
61C0
62C0
64C0
64C0
68C0
70C0
3180
3180
5F00
0000
0000
0000
ENDCHAR
STARTCHAR 217  
ENCODING 217
SWIDTH    12000    0 
DWIDTH    12    0 
BBX  12  18  0   -3
BITMAP
0800
0400
0000
60C0
60C0
60C0
60C0
60C0
60C0
60C0
60C0
60C0
60C0
3180
3F80
0000
0000
0000
ENDCHAR
STARTCHAR 218  
ENCODING 218
SWIDTH    12000    0 
DWIDTH    12    0 
BBX  12  18  0   -3
BITMAP
0200
0400
0000
60C0
60C0
60C0
60C0
60C0
60C0
60C0
60C0
60C0
60C0
3180
3F80
0000
0000
0000
ENDCHAR
STARTCHAR 219  
ENCODING 219
SWIDTH    12000    0 
DWIDTH    12    0 
BBX  12  18  0   -3
BITMAP
0400
0A00
0000
60C0
60C0
60C0
60C0
60C0
60C0
60C0
60C0
60C0
60C0
3180
3F80
0000
0000
0000
ENDCHAR
STARTCHAR 220  
ENCODING 220
SWIDTH    12000    0 
DWIDTH    12    0 
BBX  12  18  0   -3
BITMAP
0000
1100
0000
60C0
60C0
60C0
60C0
60C0
60C0
60C0
60C0
60C0
60C0
3180
3F80
0000
0000
0000
ENDCHAR
STARTCHAR 221  
ENCODING 221
SWIDTH    12000    0 
DWIDTH    12    0 
BBX  12  18  0   -3
BITMAP
0200
0400
0000
6060
30C0
30C0
1980
1980
0F00
0F00
0600
0600
0600
0600
0600
0000
0000
0000
ENDCHAR
STARTCHAR 222  
ENCODING 222
SWIDTH    12000    0 
DWIDTH    12    0 
BBX  12  18  0   -3
BITMAP
0000
0000
3000
3000
3000
3F80
31C0
30C0
30C0
30C0
30C0
31C0
3F80
3000
3000
3000
0000
0000
ENDCHAR
STARTCHAR 223  
ENCODING 223
SWIDTH    12000    0 
DWIDTH    12    0 
BBX  12  18  0   -3
BITMAP
0000
0000
3F80
61C0
60C0
60C0
6180
6300
6600
6300
6180
60C0
60C0
61C0
6780
0000
0000
0000
ENDCHAR
STARTCHAR 224  
ENCODING 224
SWIDTH    12000    0 
DWIDTH    12    0 
BBX  12  18  0   -3
BITMAP
0000
0000
0000
0000
0400
0200
0000
3F80
00C0
00C0
3FC0
60C0
60C0
61C0
3EC0
0000
0000
0000
ENDCHAR
STARTCHAR 225  
ENCODING 225
SWIDTH    12000    0 
DWIDTH    12    0 
BBX  12  18  0   -3
BITMAP
0000
0000
0000
0000
0200
0400
0000
3F80
00C0
00C0
3FC0
60C0
60C0
61C0
3EC0
0000
0000
0000
ENDCHAR
STARTCHAR 226  
ENCODING 226
SWIDTH    12000    0 
DWIDTH    12    0 
BBX  12  18  0   -3
BITMAP
0000
0000
0000
0000
0400
0A00
0000
3F80
00C0
00C0
3FC0
60C0
60C0
61C0
3EC0
0000
0000
0000
ENDCHAR
STARTCHAR 227  
ENCODING 227
SWIDTH    12000    0 
DWIDTH    12    0 
BBX  12  18  0   -3
BITMAP
0000
0000
0000
0000
0500
0A00
0000
3F80
00C0
00C0
3FC0
60C0
60C0
61C0
3EC0
0000
0000
0000
ENDCHAR
STARTCHAR 228  
ENCODING 228
SWIDTH    12000    0 
DWIDTH    12    0 
BBX  12  18  0   -3
BITMAP
0000
0000
0000
0000
0000
0900
0000
3F80
00C0
00C0
3FC0
60C0
60C0
61C0
3EC0
0000
0000
0000
ENDCHAR
STARTCHAR 229  
ENCODING 229
SWIDTH    12000    0 
DWIDTH    12    0 
BBX  12  18  0   -3
BITMAP
0000
0000
0000
0400
0A00
0400
0000
3F80
00C0
00C0
3FC0
60C0
60C0
61C0
3EC0
0000
0000
0000
ENDCHAR
STARTCHAR 230  
ENCODING 230
SWIDTH    12000    0 
DWIDTH    12    0 
BBX  12  18  0   -3
BITMAP
0000
0000
0000
0000
0000
0000
0000
7FC0
0660
3E60
67E0
6600
6600
6600
3BC0
0000
0000
0000
ENDCHAR
STARTCHAR 231  
ENCODING 231
SWIDTH    12000    0 
DWIDTH    12    0 
BBX  12  18  0   -3
BITMAP
0000
0000
0000
0000
0000
0000
0000
3F80
70C0
6000
6000
6000
6000
70C0
3F80
0400
0800
0000
ENDCHAR
STARTCHAR 232  
ENCODING 232
SWIDTH    12000    0 
DWIDTH    12    0 
BBX  12  18  0   -3
BITMAP
0000
0000
0000
0000
0800
0400
0000
3F80
60C0
60C0
7FC0
6000
6000
7000
3F80
0000
0000
0000
ENDCHAR
STARTCHAR 233  
ENCODING 233
SWIDTH    12000    0 
DWIDTH    12    0 
BBX  12  18  0   -3
BITMAP
0000
0000
0000
0000
0200
0400
0000
3F80
60C0
60C0
7FC0
6000
6000
7000
3F80
0000
0000
0000
ENDCHAR
STARTCHAR 234  
ENCODING 234
SWIDTH    12000    0 
DWIDTH    12    0 
BBX  12  18  0   -3
BITMAP
0000
0000
0000
0000
0400
0A00
0000
3F80
60C0
60C0
7FC0
6000
6000
7000
3F80
0000
0000
0000
ENDCHAR
STARTCHAR 235  
ENCODING 235
SWIDTH    12000    0 
DWIDTH    12    0 
BBX  12  18  0   -3
BITMAP
0000
0000
0000
0000
0000
1100
0000
3F80
60C0
60C0
7FC0
6000
6000
7000
3F80
0000
0000
0000
ENDCHAR
STARTCHAR 236  
ENCODING 236
SWIDTH    12000    0 
DWIDTH    12    0 
BBX  12  18  0   -3
BITMAP
0000
0000
0000
0000
0400
0200
0000
0E00
0600
0600
0600
0600
0600
0600
1F80
0000
0000
0000
ENDCHAR
STARTCHAR 237  
ENCODING 237
SWIDTH    12000    0 
DWIDTH    12    0 
BBX  12  18  0   -3
BITMAP
0000
0000
0000
0000
0200
0400
0000
0E00
0600
0600
0600
0600
0600
0600
1F80
0000
0000
0000
ENDCHAR
STARTCHAR 238  
ENCODING 238
SWIDTH    12000    0 
DWIDTH    12    0 
BBX  12  18  0   -3
BITMAP
0000
0000
0000
0000
0400
0A00
0000
0E00
0600
0600
0600
0600
0600
0600
1F80
0000
0000
0000
ENDCHAR
STARTCHAR 239  
ENCODING 239
SWIDTH    12000    0 
DWIDTH    12    0 
BBX  12  18  0   -3
BITMAP
0000
0000
0000
0000
0000
0A00
0000
0E00
0600
0600
0600
0600
0600
0600
1F80
0000
0000
0000
ENDCHAR
STARTCHAR 240  
ENCODING 240
SWIDTH    12000    0 
DWIDTH    12    0 
BBX  12  18  0   -3
BITMAP
0000
0000
0000
0A00
0400
0A00
0100
3F80
71C0
60C0
60C0
60C0
60C0
71C0
3F80
0000
0000
0000
ENDCHAR
STARTCHAR 241  
ENCODING 241
SWIDTH    12000    0 
DWIDTH    12    0 
BBX  12  18  0   -3
BITMAP
0000
0000
0000
0000
0500
0A00
0000
6F80
71C0
60C0
60C0
60C0
60C0
60C0
60C0
0000
0000
0000
ENDCHAR
STARTCHAR 242  
ENCODING 242
SWIDTH    12000    0 
DWIDTH    12    0 
BBX  12  18  0   -3
BITMAP
0000
0000
0000
0000
0800
0400
0000
1F00
3180
60C0
60C0
60C0
60C0
3180
1F00
0000
0000
0000
ENDCHAR
STARTCHAR 243  
ENCODING 243
SWIDTH    12000    0 
DWIDTH    12    0 
BBX  12  18  0   -3
BITMAP
0000
0000
0000
0000
0200
0400
0000
1F00
3180
60C0
60C0
60C0
60C0
3180
1F00
0000
0000
0000
ENDCHAR
STARTCHAR 244  
ENCODING 244
SWIDTH    12000    0 
DWIDTH    12    0 
BBX  12  18  0   -3
BITMAP
0000
0000
0000
0000
0400
0A00
0000
1F00
3180
60C0
60C0
60C0
60C0
3180
1F00
0000
0000
0000
ENDCHAR
STARTCHAR 245  
ENCODING 245
SWIDTH    12000    0 
DWIDTH    12    0 
BBX  12  18  0   -3
BITMAP
0000
0000
0000
0000
0500
0A00
0000
1F00
3180
60C0
60C0
60C0
60C0
3180
1F00
0000
0000
0000
ENDCHAR
STARTCHAR 246  
ENCODING 246
SWIDTH    12000    0 
DWIDTH    12    0 
BBX  12  18  0   -3
BITMAP
0000
0000
0000
0000
0000
1100
0000
1F00
3180
60C0
60C0
60C0
60C0
3180
1F00
0000
0000
0000
ENDCHAR
STARTCHAR 247  
ENCODING 247
SWIDTH    12000    0 
DWIDTH    12    0 
BBX  12  18  0   -3
BITMAP
0000
0000
0000
0000
0000
0000
0000
0000
0000
0000
0000
0000
0000
0000
0000
0000
0000
0000
ENDCHAR
STARTCHAR 248  
ENCODING 248
SWIDTH    12000    0 
DWIDTH    12    0 
BBX  12  18  0   -3
BITMAP
0000
0000
0000
0000
0000
0000
0040
1F80
3180
62C0
64C0
64C0
68C0
3180
3F00
4000
0000
0000
ENDCHAR
STARTCHAR 249  
ENCODING 249
SWIDTH    12000    0 
DWIDTH    12    0 
BBX  12  18  0   -3
BITMAP
0000
0000
0000
0000
0800
0400
0000
60C0
60C0
60C0
60C0
60C0
60C0
71C0
3FA0
0000
0000
0000
ENDCHAR
STARTCHAR 250  
ENCODING 250
SWIDTH    12000    0 
DWIDTH    12    0 
BBX  12  18  0   -3
BITMAP
0000
0000
0000
0000
0200
0400
0000
60C0
60C0
60C0
60C0
60C0
60C0
71C0
3FA0
0000
0000
0000
ENDCHAR
STARTCHAR 251  
ENCODING 251
SWIDTH    12000    0 
DWIDTH    12    0 
BBX  12  18  0   -3
BITMAP
0000
0000
0000
0000
0400
0A00
0000
60C0
60C0
60C0
60C0
60C0
60C0
71C0
3FA0
0000
0000
0000
ENDCHAR
STARTCHAR 252  
ENCODING 252
SWIDTH    12000    0 
DWIDTH    12    0 
BBX  12  18  0   -3
BITMAP
0000
0000
0000
0000
0000
1100
0000
60C0
60C0
60C0
60C0
60C0
60C0
71C0
3FA0
0000
0000
0000
ENDCHAR
STARTCHAR 253  
ENCODING 253
SWIDTH    12000    0 
DWIDTH    12    0 
BBX  12  18  0   -3
BITMAP
0000
0000
0000
0000
0200
0400
0000
60C0
60C0
60C0
60C0
60C0
79C0
3EC0
00C0
00C0
60C0
3F80
ENDCHAR
STARTCHAR 254  
ENCODING 254
SWIDTH    12000    0 
DWIDTH    12    0 
BBX  12  18  0   -3
BITMAP
0000
0000
0000
0000
0000
3000
3000
3000
3000
3F80
30C0
30C0
30C0
3F80
3000
3000
3000
3000
ENDCHAR
STARTCHAR 255  
ENCODING 255
SWIDTH    12000    0 
DWIDTH    12    0 
BBX  12  18  0   -3
BITMAP
0000
0000
0000
0000
0000
1100
0000
60C0
60C0
60C0
60C0
60C0
71C0
3EC0
00C0
00C0
60C0
3F80
ENDCHAR
ENDFONT
